<mxfile host="app.diagrams.net" modified="2021-03-26T07:04:26.759Z" agent="5.0 (Macintosh; Intel Mac OS X 11_0_1) AppleWebKit/537.36 (KHTML, like Gecko) Chrome/89.0.4389.90 Safari/537.36" etag="OI5o7xqKf9s7kKNLjwia" version="14.4.9" type="github">
  <diagram id="C5RBs43oDa-KdzZeNtuy" name="Page-1">
    <mxGraphModel dx="2191" dy="801" grid="1" gridSize="6" guides="1" tooltips="1" connect="1" arrows="1" fold="1" page="1" pageScale="1" pageWidth="827" pageHeight="1169" background="none" math="0" shadow="0">
      <root>
        <mxCell id="WIyWlLk6GJQsqaUBKTNV-0" />
        <mxCell id="WIyWlLk6GJQsqaUBKTNV-1" parent="WIyWlLk6GJQsqaUBKTNV-0" />
        <mxCell id="AT0RoLJ10cqplEt6n9_Q-3" value="" style="edgeStyle=orthogonalEdgeStyle;rounded=0;orthogonalLoop=1;jettySize=auto;html=1;" parent="WIyWlLk6GJQsqaUBKTNV-1" source="AT0RoLJ10cqplEt6n9_Q-1" target="AT0RoLJ10cqplEt6n9_Q-2" edge="1">
          <mxGeometry relative="1" as="geometry" />
        </mxCell>
        <mxCell id="AT0RoLJ10cqplEt6n9_Q-1" value="开始" style="strokeWidth=2;html=1;shape=mxgraph.flowchart.terminator;whiteSpace=wrap;" parent="WIyWlLk6GJQsqaUBKTNV-1" vertex="1">
          <mxGeometry x="364" y="10" width="100" height="50" as="geometry" />
        </mxCell>
        <mxCell id="AT0RoLJ10cqplEt6n9_Q-5" value="" style="edgeStyle=orthogonalEdgeStyle;rounded=1;orthogonalLoop=1;jettySize=auto;html=1;" parent="WIyWlLk6GJQsqaUBKTNV-1" source="AT0RoLJ10cqplEt6n9_Q-2" target="AT0RoLJ10cqplEt6n9_Q-4" edge="1">
          <mxGeometry relative="1" as="geometry" />
        </mxCell>
        <mxCell id="AT0RoLJ10cqplEt6n9_Q-2" value="地址栏输入内容" style="whiteSpace=wrap;html=1;strokeWidth=2;" parent="WIyWlLk6GJQsqaUBKTNV-1" vertex="1">
          <mxGeometry x="354" y="100" width="120" height="44" as="geometry" />
        </mxCell>
        <mxCell id="AT0RoLJ10cqplEt6n9_Q-7" value="" style="edgeStyle=orthogonalEdgeStyle;rounded=0;orthogonalLoop=1;jettySize=auto;html=1;" parent="WIyWlLk6GJQsqaUBKTNV-1" source="AT0RoLJ10cqplEt6n9_Q-4" target="AT0RoLJ10cqplEt6n9_Q-6" edge="1">
          <mxGeometry relative="1" as="geometry" />
        </mxCell>
        <mxCell id="AT0RoLJ10cqplEt6n9_Q-8" value="否" style="edgeLabel;html=1;align=center;verticalAlign=middle;resizable=0;points=[];fontSize=11;horizontal=1;" parent="AT0RoLJ10cqplEt6n9_Q-7" vertex="1" connectable="0">
          <mxGeometry x="-0.1" y="-2" relative="1" as="geometry">
            <mxPoint x="-2" y="-2" as="offset" />
          </mxGeometry>
        </mxCell>
        <mxCell id="AT0RoLJ10cqplEt6n9_Q-10" value="" style="edgeStyle=orthogonalEdgeStyle;rounded=0;orthogonalLoop=1;jettySize=auto;html=1;" parent="WIyWlLk6GJQsqaUBKTNV-1" source="AT0RoLJ10cqplEt6n9_Q-4" target="AT0RoLJ10cqplEt6n9_Q-9" edge="1">
          <mxGeometry relative="1" as="geometry" />
        </mxCell>
        <mxCell id="AT0RoLJ10cqplEt6n9_Q-4" value="是不是URL" style="rhombus;whiteSpace=wrap;html=1;strokeWidth=2;" parent="WIyWlLk6GJQsqaUBKTNV-1" vertex="1">
          <mxGeometry x="372" y="180" width="82" height="66" as="geometry" />
        </mxCell>
        <mxCell id="AT0RoLJ10cqplEt6n9_Q-6" value="不是URL的话就是搜索内容" style="whiteSpace=wrap;html=1;strokeWidth=2;" parent="WIyWlLk6GJQsqaUBKTNV-1" vertex="1">
          <mxGeometry x="534" y="183" width="120" height="60" as="geometry" />
        </mxCell>
        <mxCell id="AT0RoLJ10cqplEt6n9_Q-19" value="" style="edgeStyle=orthogonalEdgeStyle;rounded=1;orthogonalLoop=1;jettySize=auto;html=1;fontSize=11;" parent="WIyWlLk6GJQsqaUBKTNV-1" source="AT0RoLJ10cqplEt6n9_Q-9" target="AT0RoLJ10cqplEt6n9_Q-18" edge="1">
          <mxGeometry relative="1" as="geometry" />
        </mxCell>
        <mxCell id="AT0RoLJ10cqplEt6n9_Q-9" value="确认是URL之后会把URL发送到网络进程" style="whiteSpace=wrap;html=1;strokeWidth=2;" parent="WIyWlLk6GJQsqaUBKTNV-1" vertex="1">
          <mxGeometry x="353" y="280" width="120" height="60" as="geometry" />
        </mxCell>
        <mxCell id="AT0RoLJ10cqplEt6n9_Q-11" value="&lt;ul&gt;&lt;li&gt;浏览器进程&lt;/li&gt;&lt;li&gt;渲染进程&lt;/li&gt;&lt;li&gt;网络进程&lt;/li&gt;&lt;li&gt;GPU进程&lt;/li&gt;&lt;li&gt;插件进程&lt;/li&gt;&lt;/ul&gt;" style="text;html=1;align=center;verticalAlign=middle;resizable=0;points=[];autosize=1;fontSize=11;" parent="WIyWlLk6GJQsqaUBKTNV-1" vertex="1">
          <mxGeometry x="30" y="36" width="120" height="90" as="geometry" />
        </mxCell>
        <mxCell id="AT0RoLJ10cqplEt6n9_Q-79" value="" style="edgeStyle=orthogonalEdgeStyle;rounded=1;orthogonalLoop=1;jettySize=auto;html=1;fontSize=11;" parent="WIyWlLk6GJQsqaUBKTNV-1" source="AT0RoLJ10cqplEt6n9_Q-18" target="AT0RoLJ10cqplEt6n9_Q-78" edge="1">
          <mxGeometry relative="1" as="geometry" />
        </mxCell>
        <mxCell id="AT0RoLJ10cqplEt6n9_Q-80" value="是" style="edgeLabel;html=1;align=center;verticalAlign=middle;resizable=0;points=[];fontSize=11;" parent="AT0RoLJ10cqplEt6n9_Q-79" vertex="1" connectable="0">
          <mxGeometry x="-0.1578" relative="1" as="geometry">
            <mxPoint as="offset" />
          </mxGeometry>
        </mxCell>
        <mxCell id="AT0RoLJ10cqplEt6n9_Q-84" value="" style="edgeStyle=orthogonalEdgeStyle;rounded=1;orthogonalLoop=1;jettySize=auto;html=1;fontSize=11;" parent="WIyWlLk6GJQsqaUBKTNV-1" source="AT0RoLJ10cqplEt6n9_Q-18" target="AT0RoLJ10cqplEt6n9_Q-83" edge="1">
          <mxGeometry relative="1" as="geometry" />
        </mxCell>
        <mxCell id="AT0RoLJ10cqplEt6n9_Q-18" value="&lt;span style=&quot;color: rgb(0 , 0 , 0) ; font-family: &amp;#34;helvetica&amp;#34; ; font-size: 12px ; font-style: normal ; font-weight: 400 ; letter-spacing: normal ; text-align: center ; text-indent: 0px ; text-transform: none ; word-spacing: 0px ; background-color: rgb(248 , 249 , 250) ; display: inline ; float: none&quot;&gt;是否缓存了该资源&lt;br&gt;强缓存&lt;br&gt;&lt;/span&gt;" style="rhombus;whiteSpace=wrap;html=1;strokeWidth=2;aspect=fixed;" parent="WIyWlLk6GJQsqaUBKTNV-1" vertex="1">
          <mxGeometry x="364" y="372" width="100" height="100" as="geometry" />
        </mxCell>
        <mxCell id="AT0RoLJ10cqplEt6n9_Q-22" value="" style="edgeStyle=orthogonalEdgeStyle;rounded=1;orthogonalLoop=1;jettySize=auto;html=1;fontSize=11;" parent="WIyWlLk6GJQsqaUBKTNV-1" source="AT0RoLJ10cqplEt6n9_Q-20" target="AT0RoLJ10cqplEt6n9_Q-21" edge="1">
          <mxGeometry relative="1" as="geometry" />
        </mxCell>
        <mxCell id="AT0RoLJ10cqplEt6n9_Q-20" value="浏览器请求" style="strokeWidth=2;html=1;shape=mxgraph.flowchart.terminator;whiteSpace=wrap;fontSize=11;align=center;" parent="WIyWlLk6GJQsqaUBKTNV-1" vertex="1">
          <mxGeometry x="-645" y="10" width="100" height="60" as="geometry" />
        </mxCell>
        <mxCell id="AT0RoLJ10cqplEt6n9_Q-24" value="" style="edgeStyle=orthogonalEdgeStyle;rounded=1;orthogonalLoop=1;jettySize=auto;html=1;fontSize=11;" parent="WIyWlLk6GJQsqaUBKTNV-1" source="AT0RoLJ10cqplEt6n9_Q-21" target="AT0RoLJ10cqplEt6n9_Q-23" edge="1">
          <mxGeometry relative="1" as="geometry" />
        </mxCell>
        <mxCell id="AT0RoLJ10cqplEt6n9_Q-25" value="是" style="edgeLabel;html=1;align=center;verticalAlign=middle;resizable=0;points=[];fontSize=11;" parent="AT0RoLJ10cqplEt6n9_Q-24" vertex="1" connectable="0">
          <mxGeometry x="0.13" y="3" relative="1" as="geometry">
            <mxPoint x="-3" y="-7" as="offset" />
          </mxGeometry>
        </mxCell>
        <mxCell id="AT0RoLJ10cqplEt6n9_Q-29" value="否" style="edgeStyle=orthogonalEdgeStyle;rounded=1;orthogonalLoop=1;jettySize=auto;html=1;fontSize=11;" parent="WIyWlLk6GJQsqaUBKTNV-1" source="AT0RoLJ10cqplEt6n9_Q-21" target="AT0RoLJ10cqplEt6n9_Q-28" edge="1">
          <mxGeometry relative="1" as="geometry" />
        </mxCell>
        <mxCell id="AT0RoLJ10cqplEt6n9_Q-21" value="是否有强缓存？" style="rhombus;whiteSpace=wrap;html=1;fontSize=11;strokeWidth=2;" parent="WIyWlLk6GJQsqaUBKTNV-1" vertex="1">
          <mxGeometry x="-635" y="110" width="80" height="70" as="geometry" />
        </mxCell>
        <mxCell id="AT0RoLJ10cqplEt6n9_Q-32" style="edgeStyle=orthogonalEdgeStyle;rounded=1;orthogonalLoop=1;jettySize=auto;html=1;exitX=1;exitY=0.5;exitDx=0;exitDy=0;entryX=0;entryY=0.5;entryDx=0;entryDy=0;fontSize=11;" parent="WIyWlLk6GJQsqaUBKTNV-1" source="AT0RoLJ10cqplEt6n9_Q-23" target="AT0RoLJ10cqplEt6n9_Q-28" edge="1">
          <mxGeometry relative="1" as="geometry" />
        </mxCell>
        <mxCell id="AT0RoLJ10cqplEt6n9_Q-33" value="是" style="edgeLabel;html=1;align=center;verticalAlign=middle;resizable=0;points=[];fontSize=11;" parent="AT0RoLJ10cqplEt6n9_Q-32" vertex="1" connectable="0">
          <mxGeometry x="-0.2503" y="1" relative="1" as="geometry">
            <mxPoint y="-12.28" as="offset" />
          </mxGeometry>
        </mxCell>
        <mxCell id="AT0RoLJ10cqplEt6n9_Q-35" value="" style="edgeStyle=orthogonalEdgeStyle;rounded=1;orthogonalLoop=1;jettySize=auto;html=1;fontSize=11;" parent="WIyWlLk6GJQsqaUBKTNV-1" source="AT0RoLJ10cqplEt6n9_Q-23" target="AT0RoLJ10cqplEt6n9_Q-34" edge="1">
          <mxGeometry relative="1" as="geometry" />
        </mxCell>
        <mxCell id="AT0RoLJ10cqplEt6n9_Q-36" value="否" style="edgeLabel;html=1;align=center;verticalAlign=middle;resizable=0;points=[];fontSize=11;" parent="AT0RoLJ10cqplEt6n9_Q-35" vertex="1" connectable="0">
          <mxGeometry x="-0.2489" relative="1" as="geometry">
            <mxPoint y="1.6" as="offset" />
          </mxGeometry>
        </mxCell>
        <mxCell id="AT0RoLJ10cqplEt6n9_Q-23" value="强缓存是否过期？" style="rhombus;whiteSpace=wrap;html=1;fontSize=11;strokeWidth=2;" parent="WIyWlLk6GJQsqaUBKTNV-1" vertex="1">
          <mxGeometry x="-635" y="230" width="80" height="70" as="geometry" />
        </mxCell>
        <mxCell id="AT0RoLJ10cqplEt6n9_Q-39" value="" style="edgeStyle=orthogonalEdgeStyle;rounded=1;orthogonalLoop=1;jettySize=auto;html=1;fontSize=11;" parent="WIyWlLk6GJQsqaUBKTNV-1" source="AT0RoLJ10cqplEt6n9_Q-28" target="AT0RoLJ10cqplEt6n9_Q-38" edge="1">
          <mxGeometry relative="1" as="geometry" />
        </mxCell>
        <mxCell id="AT0RoLJ10cqplEt6n9_Q-47" value="是" style="edgeLabel;html=1;align=center;verticalAlign=middle;resizable=0;points=[];fontSize=11;" parent="AT0RoLJ10cqplEt6n9_Q-39" vertex="1" connectable="0">
          <mxGeometry x="-0.08" y="-1" relative="1" as="geometry">
            <mxPoint x="-3" y="-2" as="offset" />
          </mxGeometry>
        </mxCell>
        <mxCell id="AT0RoLJ10cqplEt6n9_Q-49" value="" style="edgeStyle=orthogonalEdgeStyle;rounded=1;orthogonalLoop=1;jettySize=auto;html=1;fontSize=11;" parent="WIyWlLk6GJQsqaUBKTNV-1" source="AT0RoLJ10cqplEt6n9_Q-28" target="AT0RoLJ10cqplEt6n9_Q-48" edge="1">
          <mxGeometry relative="1" as="geometry" />
        </mxCell>
        <mxCell id="AT0RoLJ10cqplEt6n9_Q-50" value="否" style="edgeLabel;html=1;align=center;verticalAlign=middle;resizable=0;points=[];fontSize=11;" parent="AT0RoLJ10cqplEt6n9_Q-49" vertex="1" connectable="0">
          <mxGeometry x="-0.51" y="1" relative="1" as="geometry">
            <mxPoint x="-1" y="6" as="offset" />
          </mxGeometry>
        </mxCell>
        <mxCell id="AT0RoLJ10cqplEt6n9_Q-53" style="edgeStyle=orthogonalEdgeStyle;rounded=1;orthogonalLoop=1;jettySize=auto;html=1;exitX=0.5;exitY=0;exitDx=0;exitDy=0;entryX=0.5;entryY=1;entryDx=0;entryDy=0;fontSize=11;" parent="WIyWlLk6GJQsqaUBKTNV-1" source="AT0RoLJ10cqplEt6n9_Q-28" target="AT0RoLJ10cqplEt6n9_Q-46" edge="1">
          <mxGeometry relative="1" as="geometry" />
        </mxCell>
        <mxCell id="AT0RoLJ10cqplEt6n9_Q-28" value="etag?" style="rhombus;whiteSpace=wrap;html=1;fontSize=11;strokeWidth=2;" parent="WIyWlLk6GJQsqaUBKTNV-1" vertex="1">
          <mxGeometry x="-450" y="180" width="60" height="50" as="geometry" />
        </mxCell>
        <mxCell id="AT0RoLJ10cqplEt6n9_Q-76" style="edgeStyle=orthogonalEdgeStyle;rounded=1;orthogonalLoop=1;jettySize=auto;html=1;exitX=0.5;exitY=1;exitDx=0;exitDy=0;entryX=0.5;entryY=0;entryDx=0;entryDy=0;entryPerimeter=0;fontSize=11;" parent="WIyWlLk6GJQsqaUBKTNV-1" source="AT0RoLJ10cqplEt6n9_Q-34" target="AT0RoLJ10cqplEt6n9_Q-37" edge="1">
          <mxGeometry relative="1" as="geometry">
            <Array as="points">
              <mxPoint x="-595" y="570" />
              <mxPoint x="-420" y="570" />
            </Array>
          </mxGeometry>
        </mxCell>
        <mxCell id="AT0RoLJ10cqplEt6n9_Q-34" value="从缓存读取" style="whiteSpace=wrap;html=1;fontSize=11;strokeWidth=2;" parent="WIyWlLk6GJQsqaUBKTNV-1" vertex="1">
          <mxGeometry x="-650" y="457.5" width="110" height="45" as="geometry" />
        </mxCell>
        <mxCell id="AT0RoLJ10cqplEt6n9_Q-37" value="渲染页面" style="strokeWidth=2;html=1;shape=mxgraph.flowchart.terminator;whiteSpace=wrap;fontSize=11;align=center;" parent="WIyWlLk6GJQsqaUBKTNV-1" vertex="1">
          <mxGeometry x="-470" y="600" width="100" height="60" as="geometry" />
        </mxCell>
        <mxCell id="AT0RoLJ10cqplEt6n9_Q-55" style="edgeStyle=orthogonalEdgeStyle;rounded=1;orthogonalLoop=1;jettySize=auto;html=1;exitX=0.5;exitY=0;exitDx=0;exitDy=0;entryX=0.5;entryY=1;entryDx=0;entryDy=0;fontSize=11;" parent="WIyWlLk6GJQsqaUBKTNV-1" source="AT0RoLJ10cqplEt6n9_Q-38" target="AT0RoLJ10cqplEt6n9_Q-46" edge="1">
          <mxGeometry relative="1" as="geometry" />
        </mxCell>
        <mxCell id="AT0RoLJ10cqplEt6n9_Q-66" value="" style="edgeStyle=orthogonalEdgeStyle;rounded=1;orthogonalLoop=1;jettySize=auto;html=1;fontSize=11;" parent="WIyWlLk6GJQsqaUBKTNV-1" source="AT0RoLJ10cqplEt6n9_Q-38" target="AT0RoLJ10cqplEt6n9_Q-65" edge="1">
          <mxGeometry relative="1" as="geometry" />
        </mxCell>
        <mxCell id="AT0RoLJ10cqplEt6n9_Q-38" value="header携带if-none-match" style="whiteSpace=wrap;html=1;fontSize=11;strokeWidth=2;" parent="WIyWlLk6GJQsqaUBKTNV-1" vertex="1">
          <mxGeometry x="-320" y="185" width="120" height="40" as="geometry" />
        </mxCell>
        <mxCell id="AT0RoLJ10cqplEt6n9_Q-46" value="etag是服务器对文件内容做的摘要算法&lt;br&gt;&lt;br&gt;if-none-match是上一次的etag值" style="text;html=1;strokeColor=none;fillColor=none;align=center;verticalAlign=middle;whiteSpace=wrap;rounded=0;fontSize=11;" parent="WIyWlLk6GJQsqaUBKTNV-1" vertex="1">
          <mxGeometry x="-460" y="40" width="230" height="70" as="geometry" />
        </mxCell>
        <mxCell id="AT0RoLJ10cqplEt6n9_Q-52" value="" style="edgeStyle=orthogonalEdgeStyle;rounded=1;orthogonalLoop=1;jettySize=auto;html=1;fontSize=11;" parent="WIyWlLk6GJQsqaUBKTNV-1" source="AT0RoLJ10cqplEt6n9_Q-48" target="AT0RoLJ10cqplEt6n9_Q-51" edge="1">
          <mxGeometry relative="1" as="geometry" />
        </mxCell>
        <mxCell id="AT0RoLJ10cqplEt6n9_Q-57" value="是" style="edgeLabel;html=1;align=center;verticalAlign=middle;resizable=0;points=[];fontSize=11;" parent="AT0RoLJ10cqplEt6n9_Q-52" vertex="1" connectable="0">
          <mxGeometry x="-0.1867" y="3" relative="1" as="geometry">
            <mxPoint y="1" as="offset" />
          </mxGeometry>
        </mxCell>
        <mxCell id="AT0RoLJ10cqplEt6n9_Q-61" value="" style="edgeStyle=orthogonalEdgeStyle;rounded=1;orthogonalLoop=1;jettySize=auto;html=1;fontSize=11;" parent="WIyWlLk6GJQsqaUBKTNV-1" source="AT0RoLJ10cqplEt6n9_Q-48" target="AT0RoLJ10cqplEt6n9_Q-60" edge="1">
          <mxGeometry relative="1" as="geometry" />
        </mxCell>
        <mxCell id="AT0RoLJ10cqplEt6n9_Q-62" value="否" style="edgeLabel;html=1;align=center;verticalAlign=middle;resizable=0;points=[];fontSize=11;" parent="AT0RoLJ10cqplEt6n9_Q-61" vertex="1" connectable="0">
          <mxGeometry x="-0.2138" y="-1" relative="1" as="geometry">
            <mxPoint x="1" as="offset" />
          </mxGeometry>
        </mxCell>
        <mxCell id="AT0RoLJ10cqplEt6n9_Q-48" value="last-modify?" style="rhombus;whiteSpace=wrap;html=1;fontSize=11;strokeWidth=2;" parent="WIyWlLk6GJQsqaUBKTNV-1" vertex="1">
          <mxGeometry x="-460" y="277.5" width="80" height="45" as="geometry" />
        </mxCell>
        <mxCell id="AT0RoLJ10cqplEt6n9_Q-70" style="edgeStyle=orthogonalEdgeStyle;rounded=1;orthogonalLoop=1;jettySize=auto;html=1;exitX=1;exitY=0.5;exitDx=0;exitDy=0;fontSize=11;entryX=0.5;entryY=0;entryDx=0;entryDy=0;" parent="WIyWlLk6GJQsqaUBKTNV-1" source="AT0RoLJ10cqplEt6n9_Q-51" target="AT0RoLJ10cqplEt6n9_Q-65" edge="1">
          <mxGeometry relative="1" as="geometry">
            <mxPoint x="-120" y="299.79999999999995" as="targetPoint" />
          </mxGeometry>
        </mxCell>
        <mxCell id="AT0RoLJ10cqplEt6n9_Q-71" value="&lt;span style=&quot;background-color: rgb(248 , 249 , 250)&quot;&gt;服务器决策&lt;/span&gt;" style="edgeLabel;html=1;align=center;verticalAlign=middle;resizable=0;points=[];fontSize=11;" parent="AT0RoLJ10cqplEt6n9_Q-70" vertex="1" connectable="0">
          <mxGeometry x="0.4297" relative="1" as="geometry">
            <mxPoint as="offset" />
          </mxGeometry>
        </mxCell>
        <mxCell id="AT0RoLJ10cqplEt6n9_Q-51" value="header携带if-modified-since" style="whiteSpace=wrap;html=1;fontSize=11;strokeWidth=2;" parent="WIyWlLk6GJQsqaUBKTNV-1" vertex="1">
          <mxGeometry x="-320" y="280" width="120" height="40" as="geometry" />
        </mxCell>
        <mxCell id="AT0RoLJ10cqplEt6n9_Q-64" value="" style="edgeStyle=orthogonalEdgeStyle;rounded=1;orthogonalLoop=1;jettySize=auto;html=1;fontSize=11;" parent="WIyWlLk6GJQsqaUBKTNV-1" source="AT0RoLJ10cqplEt6n9_Q-60" target="AT0RoLJ10cqplEt6n9_Q-63" edge="1">
          <mxGeometry relative="1" as="geometry" />
        </mxCell>
        <mxCell id="AT0RoLJ10cqplEt6n9_Q-60" value="web服务器发送请求" style="whiteSpace=wrap;html=1;fontSize=11;strokeWidth=2;" parent="WIyWlLk6GJQsqaUBKTNV-1" vertex="1">
          <mxGeometry x="-480" y="395" width="120" height="45" as="geometry" />
        </mxCell>
        <mxCell id="AT0RoLJ10cqplEt6n9_Q-74" style="edgeStyle=orthogonalEdgeStyle;rounded=1;orthogonalLoop=1;jettySize=auto;html=1;exitX=0.5;exitY=1;exitDx=0;exitDy=0;fontSize=11;" parent="WIyWlLk6GJQsqaUBKTNV-1" source="AT0RoLJ10cqplEt6n9_Q-63" target="AT0RoLJ10cqplEt6n9_Q-37" edge="1">
          <mxGeometry relative="1" as="geometry" />
        </mxCell>
        <mxCell id="AT0RoLJ10cqplEt6n9_Q-63" value="返回响应资源，协商缓存" style="whiteSpace=wrap;html=1;fontSize=11;strokeWidth=2;" parent="WIyWlLk6GJQsqaUBKTNV-1" vertex="1">
          <mxGeometry x="-480" y="490" width="120" height="50" as="geometry" />
        </mxCell>
        <mxCell id="AT0RoLJ10cqplEt6n9_Q-72" style="edgeStyle=orthogonalEdgeStyle;rounded=1;orthogonalLoop=1;jettySize=auto;html=1;exitX=0;exitY=0.5;exitDx=0;exitDy=0;entryX=1;entryY=0.5;entryDx=0;entryDy=0;fontSize=11;" parent="WIyWlLk6GJQsqaUBKTNV-1" source="AT0RoLJ10cqplEt6n9_Q-65" target="AT0RoLJ10cqplEt6n9_Q-63" edge="1">
          <mxGeometry relative="1" as="geometry" />
        </mxCell>
        <mxCell id="AT0RoLJ10cqplEt6n9_Q-73" value="200" style="edgeLabel;html=1;align=center;verticalAlign=middle;resizable=0;points=[];fontSize=11;" parent="AT0RoLJ10cqplEt6n9_Q-72" vertex="1" connectable="0">
          <mxGeometry x="0.3403" y="-1" relative="1" as="geometry">
            <mxPoint as="offset" />
          </mxGeometry>
        </mxCell>
        <mxCell id="AT0RoLJ10cqplEt6n9_Q-75" style="edgeStyle=orthogonalEdgeStyle;rounded=1;orthogonalLoop=1;jettySize=auto;html=1;exitX=0.5;exitY=1;exitDx=0;exitDy=0;entryX=0;entryY=0.5;entryDx=0;entryDy=0;fontSize=11;" parent="WIyWlLk6GJQsqaUBKTNV-1" source="AT0RoLJ10cqplEt6n9_Q-65" target="AT0RoLJ10cqplEt6n9_Q-34" edge="1">
          <mxGeometry relative="1" as="geometry">
            <Array as="points">
              <mxPoint x="-150" y="690" />
              <mxPoint x="-670" y="690" />
              <mxPoint x="-670" y="480" />
            </Array>
          </mxGeometry>
        </mxCell>
        <mxCell id="AT0RoLJ10cqplEt6n9_Q-77" value="304" style="edgeLabel;html=1;align=center;verticalAlign=middle;resizable=0;points=[];fontSize=11;" parent="AT0RoLJ10cqplEt6n9_Q-75" vertex="1" connectable="0">
          <mxGeometry x="-0.782" relative="1" as="geometry">
            <mxPoint as="offset" />
          </mxGeometry>
        </mxCell>
        <mxCell id="AT0RoLJ10cqplEt6n9_Q-65" value="200 or 304" style="rhombus;whiteSpace=wrap;html=1;fontSize=11;strokeWidth=2;" parent="WIyWlLk6GJQsqaUBKTNV-1" vertex="1">
          <mxGeometry x="-190" y="377.5" width="80" height="80" as="geometry" />
        </mxCell>
        <mxCell id="AT0RoLJ10cqplEt6n9_Q-78" value="返回缓存资源" style="whiteSpace=wrap;html=1;strokeWidth=2;" parent="WIyWlLk6GJQsqaUBKTNV-1" vertex="1">
          <mxGeometry x="534" y="392" width="120" height="60" as="geometry" />
        </mxCell>
        <mxCell id="AT0RoLJ10cqplEt6n9_Q-86" value="" style="edgeStyle=orthogonalEdgeStyle;rounded=1;orthogonalLoop=1;jettySize=auto;html=1;fontSize=11;" parent="WIyWlLk6GJQsqaUBKTNV-1" source="AT0RoLJ10cqplEt6n9_Q-83" target="AT0RoLJ10cqplEt6n9_Q-85" edge="1">
          <mxGeometry relative="1" as="geometry" />
        </mxCell>
        <mxCell id="AT0RoLJ10cqplEt6n9_Q-83" value="准备去服务器请求资源" style="whiteSpace=wrap;html=1;strokeWidth=2;" parent="WIyWlLk6GJQsqaUBKTNV-1" vertex="1">
          <mxGeometry x="354" y="510" width="120" height="60" as="geometry" />
        </mxCell>
        <mxCell id="AT0RoLJ10cqplEt6n9_Q-88" value="" style="edgeStyle=orthogonalEdgeStyle;rounded=1;orthogonalLoop=1;jettySize=auto;html=1;fontSize=11;" parent="WIyWlLk6GJQsqaUBKTNV-1" source="AT0RoLJ10cqplEt6n9_Q-85" target="AT0RoLJ10cqplEt6n9_Q-87" edge="1">
          <mxGeometry relative="1" as="geometry" />
        </mxCell>
        <mxCell id="AT0RoLJ10cqplEt6n9_Q-85" value="DNS解析域名，查找IP地址" style="whiteSpace=wrap;html=1;strokeWidth=2;" parent="WIyWlLk6GJQsqaUBKTNV-1" vertex="1">
          <mxGeometry x="354" y="612" width="120" height="60" as="geometry" />
        </mxCell>
        <mxCell id="AT0RoLJ10cqplEt6n9_Q-90" value="" style="edgeStyle=orthogonalEdgeStyle;rounded=1;orthogonalLoop=1;jettySize=auto;html=1;fontSize=11;" parent="WIyWlLk6GJQsqaUBKTNV-1" source="AT0RoLJ10cqplEt6n9_Q-87" target="AT0RoLJ10cqplEt6n9_Q-89" edge="1">
          <mxGeometry relative="1" as="geometry" />
        </mxCell>
        <mxCell id="AT0RoLJ10cqplEt6n9_Q-91" value="是" style="edgeLabel;html=1;align=center;verticalAlign=middle;resizable=0;points=[];fontSize=11;" parent="AT0RoLJ10cqplEt6n9_Q-90" vertex="1" connectable="0">
          <mxGeometry x="-0.1111" relative="1" as="geometry">
            <mxPoint as="offset" />
          </mxGeometry>
        </mxCell>
        <mxCell id="AT0RoLJ10cqplEt6n9_Q-93" value="" style="edgeStyle=orthogonalEdgeStyle;rounded=1;orthogonalLoop=1;jettySize=auto;html=1;fontSize=11;" parent="WIyWlLk6GJQsqaUBKTNV-1" source="AT0RoLJ10cqplEt6n9_Q-87" target="AT0RoLJ10cqplEt6n9_Q-92" edge="1">
          <mxGeometry relative="1" as="geometry" />
        </mxCell>
        <mxCell id="AT0RoLJ10cqplEt6n9_Q-95" value="否" style="edgeLabel;html=1;align=center;verticalAlign=middle;resizable=0;points=[];fontSize=11;" parent="AT0RoLJ10cqplEt6n9_Q-93" vertex="1" connectable="0">
          <mxGeometry x="0.0304" relative="1" as="geometry">
            <mxPoint as="offset" />
          </mxGeometry>
        </mxCell>
        <mxCell id="AT0RoLJ10cqplEt6n9_Q-87" value="DNS缓存中寻找对应域名？" style="rhombus;whiteSpace=wrap;html=1;strokeWidth=2;" parent="WIyWlLk6GJQsqaUBKTNV-1" vertex="1">
          <mxGeometry x="373" y="720" width="80" height="80" as="geometry" />
        </mxCell>
        <mxCell id="AT0RoLJ10cqplEt6n9_Q-100" value="" style="edgeStyle=orthogonalEdgeStyle;rounded=1;orthogonalLoop=1;jettySize=auto;html=1;fontSize=11;" parent="WIyWlLk6GJQsqaUBKTNV-1" source="AT0RoLJ10cqplEt6n9_Q-89" target="AT0RoLJ10cqplEt6n9_Q-99" edge="1">
          <mxGeometry relative="1" as="geometry" />
        </mxCell>
        <mxCell id="AT0RoLJ10cqplEt6n9_Q-89" value="建立TCP连接&lt;br&gt;3次握手" style="whiteSpace=wrap;html=1;strokeWidth=2;" parent="WIyWlLk6GJQsqaUBKTNV-1" vertex="1">
          <mxGeometry x="353" y="852" width="120" height="60" as="geometry" />
        </mxCell>
        <mxCell id="AT0RoLJ10cqplEt6n9_Q-94" style="edgeStyle=orthogonalEdgeStyle;rounded=1;orthogonalLoop=1;jettySize=auto;html=1;exitX=0.5;exitY=1;exitDx=0;exitDy=0;entryX=1;entryY=0.5;entryDx=0;entryDy=0;fontSize=11;" parent="WIyWlLk6GJQsqaUBKTNV-1" source="AT0RoLJ10cqplEt6n9_Q-92" target="AT0RoLJ10cqplEt6n9_Q-89" edge="1">
          <mxGeometry relative="1" as="geometry" />
        </mxCell>
        <mxCell id="AT0RoLJ10cqplEt6n9_Q-92" value="DNS解析，查找对应IP" style="whiteSpace=wrap;html=1;strokeWidth=2;" parent="WIyWlLk6GJQsqaUBKTNV-1" vertex="1">
          <mxGeometry x="522" y="730" width="120" height="60" as="geometry" />
        </mxCell>
        <mxCell id="AT0RoLJ10cqplEt6n9_Q-96" value="减少DNS解析请求次数" style="text;html=1;strokeColor=none;fillColor=none;align=center;verticalAlign=middle;whiteSpace=wrap;rounded=0;fontSize=11;" parent="WIyWlLk6GJQsqaUBKTNV-1" vertex="1">
          <mxGeometry x="66" y="706" width="162" height="84" as="geometry" />
        </mxCell>
        <mxCell id="AT0RoLJ10cqplEt6n9_Q-102" value="" style="edgeStyle=orthogonalEdgeStyle;rounded=1;orthogonalLoop=1;jettySize=auto;html=1;fontSize=11;" parent="WIyWlLk6GJQsqaUBKTNV-1" source="AT0RoLJ10cqplEt6n9_Q-99" target="AT0RoLJ10cqplEt6n9_Q-101" edge="1">
          <mxGeometry relative="1" as="geometry" />
        </mxCell>
        <mxCell id="AT0RoLJ10cqplEt6n9_Q-99" value="客户端发送请求" style="whiteSpace=wrap;html=1;strokeWidth=2;" parent="WIyWlLk6GJQsqaUBKTNV-1" vertex="1">
          <mxGeometry x="353" y="954" width="120" height="60" as="geometry" />
        </mxCell>
        <mxCell id="AT0RoLJ10cqplEt6n9_Q-106" value="" style="edgeStyle=orthogonalEdgeStyle;rounded=1;orthogonalLoop=1;jettySize=auto;html=1;fontSize=11;" parent="WIyWlLk6GJQsqaUBKTNV-1" source="AT0RoLJ10cqplEt6n9_Q-101" target="AT0RoLJ10cqplEt6n9_Q-105" edge="1">
          <mxGeometry relative="1" as="geometry" />
        </mxCell>
        <mxCell id="AT0RoLJ10cqplEt6n9_Q-101" value="服务器响应请求" style="whiteSpace=wrap;html=1;strokeWidth=2;" parent="WIyWlLk6GJQsqaUBKTNV-1" vertex="1">
          <mxGeometry x="353" y="1056" width="120" height="60" as="geometry" />
        </mxCell>
        <mxCell id="AT0RoLJ10cqplEt6n9_Q-103" value="&lt;h1 style=&quot;color: rgb(0 , 0 , 0) ; font-family: &amp;#34;helvetica&amp;#34; ; font-style: normal ; letter-spacing: normal ; text-align: center ; text-indent: 0px ; text-transform: none ; word-spacing: 0px ; background-color: rgb(248 , 249 , 250)&quot;&gt;&lt;span style=&quot;font-size: 11px ; font-weight: 400&quot;&gt;双方要明确对方接受能力都是正常的。&lt;/span&gt;&lt;br&gt;&lt;/h1&gt;&lt;p style=&quot;color: rgb(0 , 0 , 0) ; font-family: &amp;#34;helvetica&amp;#34; ; font-size: 11px ; font-style: normal ; font-weight: 400 ; letter-spacing: normal ; text-align: center ; text-indent: 0px ; text-transform: none ; word-spacing: 0px ; background-color: rgb(248 , 249 , 250)&quot;&gt;为了防止已失效的连接请求报文段突然又传到了服务端，因而产生错误&lt;/p&gt;" style="text;html=1;strokeColor=none;fillColor=none;align=center;verticalAlign=middle;whiteSpace=wrap;rounded=0;fontSize=11;" parent="WIyWlLk6GJQsqaUBKTNV-1" vertex="1">
          <mxGeometry x="66" y="852" width="228" height="90" as="geometry" />
        </mxCell>
        <mxCell id="AT0RoLJ10cqplEt6n9_Q-104" value="减少HTTP请求次数和请求资源大小" style="text;html=1;strokeColor=none;fillColor=none;align=center;verticalAlign=middle;whiteSpace=wrap;rounded=0;fontSize=11;" parent="WIyWlLk6GJQsqaUBKTNV-1" vertex="1">
          <mxGeometry x="66" y="974" width="210" height="20" as="geometry" />
        </mxCell>
        <mxCell id="AT0RoLJ10cqplEt6n9_Q-105" value="TCP断开连接&lt;br&gt;4次挥手" style="whiteSpace=wrap;html=1;strokeWidth=2;" parent="WIyWlLk6GJQsqaUBKTNV-1" vertex="1">
          <mxGeometry x="353" y="1158" width="120" height="60" as="geometry" />
        </mxCell>
        <mxCell id="AT0RoLJ10cqplEt6n9_Q-108" value="&lt;div&gt;&lt;div&gt;因为建立一旦连接，双方既是发送方，又是接收方，为了保证在最后断开的时候，客户端发送的最后一个ACK报文段能够被服务器接收到。如果客户端在收到服务器给它的断开连接的请求之后，回应完服务器就直接断开连接的话，服务器就会因为一直没得到客户端响应而一直等待，所以客户端要等待两个最长报文段寿命的时间，以便于服务器没有收到请求之后重新发送请求。&lt;/div&gt;&lt;/div&gt;" style="text;html=1;strokeColor=none;fillColor=none;align=center;verticalAlign=middle;whiteSpace=wrap;rounded=0;fontSize=11;" parent="WIyWlLk6GJQsqaUBKTNV-1" vertex="1">
          <mxGeometry x="69" y="1143" width="204" height="90" as="geometry" />
        </mxCell>
      </root>
    </mxGraphModel>
  </diagram>
</mxfile>
